<mxfile host="65bd71144e">
    <diagram id="Iqh0p4z0CSAQo3-YcA2V" name="ページ1">
        <mxGraphModel dx="947" dy="697" grid="1" gridSize="10" guides="1" tooltips="1" connect="1" arrows="1" fold="1" page="1" pageScale="1" pageWidth="827" pageHeight="1169" math="0" shadow="0">
            <root>
                <mxCell id="0"/>
                <mxCell id="1" parent="0"/>
                <mxCell id="2" value="武士道&lt;div&gt;～七徳目～&lt;/div&gt;" style="text;html=1;align=center;verticalAlign=middle;whiteSpace=wrap;rounded=0;fillColor=#dae8fc;strokeColor=#6c8ebf;" parent="1" vertex="1">
                    <mxGeometry x="20" y="70" width="160" height="40" as="geometry"/>
                </mxCell>
                <mxCell id="26" value="正義、道理" style="rounded=1;whiteSpace=wrap;html=1;" parent="1" vertex="1">
                    <mxGeometry x="200" y="390" width="120" height="60" as="geometry"/>
                </mxCell>
                <mxCell id="27" value="" style="rounded=1;whiteSpace=wrap;html=1;" parent="1" vertex="1">
                    <mxGeometry x="140" y="120" width="230" height="90" as="geometry"/>
                </mxCell>
                <mxCell id="31" value="&lt;div&gt;&lt;span style=&quot;background-color: transparent;&quot;&gt;忠義&lt;/span&gt;&lt;/div&gt;" style="text;html=1;align=center;verticalAlign=middle;whiteSpace=wrap;rounded=0;" parent="1" vertex="1">
                    <mxGeometry x="170" y="220" width="70" height="30" as="geometry"/>
                </mxCell>
                <mxCell id="32" value="&lt;div&gt;仁、礼&lt;/div&gt;" style="text;html=1;align=center;verticalAlign=middle;whiteSpace=wrap;rounded=0;" parent="1" vertex="1">
                    <mxGeometry x="320" y="260" width="70" height="30" as="geometry"/>
                </mxCell>
                <mxCell id="37" value="" style="shape=flexArrow;endArrow=classic;html=1;" parent="1" edge="1">
                    <mxGeometry width="50" height="50" relative="1" as="geometry">
                        <mxPoint x="259.5" y="350" as="sourcePoint"/>
                        <mxPoint x="260" y="385" as="targetPoint"/>
                    </mxGeometry>
                </mxCell>
                <mxCell id="38" value="" style="shape=flexArrow;endArrow=classic;html=1;" parent="1" edge="1">
                    <mxGeometry width="50" height="50" relative="1" as="geometry">
                        <mxPoint x="259.66" y="255" as="sourcePoint"/>
                        <mxPoint x="260.16" y="220" as="targetPoint"/>
                    </mxGeometry>
                </mxCell>
                <mxCell id="42" value="自己" style="rounded=1;whiteSpace=wrap;html=1;fillColor=#d5e8d4;strokeColor=#82b366;" parent="1" vertex="1">
                    <mxGeometry x="200" y="260" width="120" height="80" as="geometry"/>
                </mxCell>
                <mxCell id="43" value="主君" style="rounded=1;whiteSpace=wrap;html=1;" vertex="1" parent="1">
                    <mxGeometry x="170" y="137.5" width="80" height="55" as="geometry"/>
                </mxCell>
                <mxCell id="44" value="共同体" style="rounded=1;whiteSpace=wrap;html=1;" vertex="1" parent="1">
                    <mxGeometry x="270" y="137.5" width="80" height="55" as="geometry"/>
                </mxCell>
                <mxCell id="45" value="他者" style="rounded=1;whiteSpace=wrap;html=1;" vertex="1" parent="1">
                    <mxGeometry x="400" y="275" width="120" height="60" as="geometry"/>
                </mxCell>
                <mxCell id="46" value="" style="shape=flexArrow;endArrow=classic;html=1;" edge="1" parent="1">
                    <mxGeometry width="50" height="50" relative="1" as="geometry">
                        <mxPoint x="340" y="304.5" as="sourcePoint"/>
                        <mxPoint x="380" y="304.92" as="targetPoint"/>
                    </mxGeometry>
                </mxCell>
                <mxCell id="47" value="&lt;div&gt;義、勇&lt;/div&gt;" style="text;html=1;align=center;verticalAlign=middle;whiteSpace=wrap;rounded=0;" vertex="1" parent="1">
                    <mxGeometry x="170" y="350" width="70" height="30" as="geometry"/>
                </mxCell>
                <mxCell id="48" value="&lt;div&gt;誠、名誉&lt;/div&gt;" style="text;html=1;align=center;verticalAlign=middle;whiteSpace=wrap;rounded=0;" vertex="1" parent="1">
                    <mxGeometry x="130" y="260" width="70" height="30" as="geometry"/>
                </mxCell>
                <mxCell id="49" value="客観の自己" style="rounded=1;whiteSpace=wrap;html=1;" vertex="1" parent="1">
                    <mxGeometry x="10" y="275" width="120" height="60" as="geometry"/>
                </mxCell>
                <mxCell id="50" value="" style="shape=flexArrow;endArrow=classic;html=1;" edge="1" parent="1">
                    <mxGeometry width="50" height="50" relative="1" as="geometry">
                        <mxPoint x="185" y="304.5" as="sourcePoint"/>
                        <mxPoint x="145" y="304.5" as="targetPoint"/>
                    </mxGeometry>
                </mxCell>
            </root>
        </mxGraphModel>
    </diagram>
</mxfile>